# xmcd CD database file
#
# Track frame offsets:
#	150
#	15470
#	37575
#	57272
#	81399
#	104300
#	120817
#	146225
#	172910
#	189520
#	213665
#	236577
#	254172
#	273412
#	292023
#	308329
#
# Disc length: 4305 seconds
#
# Revision: 0
# Processed by: cddbd v1.5.2PL0 Copyright (c) Steve Scherf et al.
# Submitted via: CDex 1.60beta1
#
DISCID=dc10cf10
DTITLE=European Jazz Trio - EJT
DYEAR=2009
DGENRE=Jazz
TTITLE0=13 Jour En France
TTITLE1=Sailing
TTITLE2=Kiss of Fire
TTITLE3=When You Wish Upon a Star
TTITLE4=Someday My Prince Will Come
TTITLE5=Beauty And The Beast
TTITLE6=Dancing Queen
TTITLE7=Itsumo Nandodemo
TTITLE8=Allemande [French Suite No.5-1, BWV 816-1] (Bach)
TTITLE9=Sonata (Scarlatti)
TTITLE10=Fur Elise (Beethoven)
TTITLE11=Jesus.Joy Of Man's Desiring (Bach)
TTITLE12=The Swan Lake (Tchaikovsky)
TTITLE13=White Christmas
TTITLE14=Santa Claus Is Coming To Town
TTITLE15=Silent Night
EXTD=YEAR: 2009
EXTT0=
EXTT1=
EXTT2=
EXTT3=
EXTT4=
EXTT5=
EXTT6=
EXTT7=
EXTT8=
EXTT9=
EXTT10=
EXTT11=
EXTT12=
EXTT13=
EXTT14=
EXTT15=
PLAYORDER=
